<svg width="34" height="40" viewBox="0 0 34 40" fill="none" xmlns="http://www.w3.org/2000/svg">
<g clip-path="url(#clip0_726_6496)">
<rect width="34" height="40" rx="8" fill="#007AFF"/>
<rect x="25" y="-4" width="14" height="14" fill="#205EA2"/>
<path d="M6.8814 26V19.295H9.0684C9.7764 19.295 10.3914 19.439 10.9134 19.727C11.4414 20.009 11.8494 20.402 12.1374 20.906C12.4254 21.404 12.5694 21.983 12.5694 22.643C12.5694 23.297 12.4254 23.879 12.1374 24.389C11.8494 24.893 11.4414 25.289 10.9134 25.577C10.3914 25.859 9.7764 26 9.0684 26H6.8814ZM8.1054 24.92H9.0954C9.5514 24.92 9.9444 24.827 10.2744 24.641C10.6104 24.449 10.8714 24.185 11.0574 23.849C11.2434 23.507 11.3364 23.105 11.3364 22.643C11.3364 22.175 11.2434 21.773 11.0574 21.437C10.8714 21.101 10.6104 20.84 10.2744 20.654C9.9444 20.468 9.5514 20.375 9.0954 20.375H8.1054V24.92ZM16.8465 26.108C16.3545 26.108 15.8955 26.021 15.4695 25.847C15.0435 25.673 14.6715 25.43 14.3535 25.118C14.0355 24.806 13.7865 24.44 13.6065 24.02C13.4325 23.594 13.3455 23.135 13.3455 22.643C13.3455 22.145 13.4325 21.686 13.6065 21.266C13.7805 20.846 14.0265 20.48 14.3445 20.168C14.6625 19.856 15.0345 19.616 15.4605 19.448C15.8865 19.274 16.3485 19.187 16.8465 19.187C17.3445 19.187 17.8065 19.274 18.2325 19.448C18.6585 19.622 19.0305 19.865 19.3485 20.177C19.6665 20.483 19.9125 20.846 20.0865 21.266C20.2665 21.686 20.3565 22.145 20.3565 22.643C20.3565 23.135 20.2665 23.594 20.0865 24.02C19.9065 24.44 19.6575 24.806 19.3395 25.118C19.0215 25.43 18.6495 25.673 18.2235 25.847C17.8035 26.021 17.3445 26.108 16.8465 26.108ZM16.8465 24.992C17.1765 24.992 17.4795 24.935 17.7555 24.821C18.0315 24.701 18.2715 24.536 18.4755 24.326C18.6855 24.116 18.8445 23.867 18.9525 23.579C19.0665 23.291 19.1235 22.979 19.1235 22.643C19.1235 22.307 19.0665 21.998 18.9525 21.716C18.8445 21.428 18.6855 21.179 18.4755 20.969C18.2715 20.753 18.0315 20.588 17.7555 20.474C17.4795 20.36 17.1765 20.303 16.8465 20.303C16.5225 20.303 16.2225 20.36 15.9465 20.474C15.6705 20.588 15.4275 20.753 15.2175 20.969C15.0135 21.179 14.8545 21.428 14.7405 21.716C14.6265 21.998 14.5695 22.307 14.5695 22.643C14.5695 22.979 14.6265 23.291 14.7405 23.579C14.8545 23.867 15.0135 24.116 15.2175 24.326C15.4275 24.536 15.6705 24.701 15.9465 24.821C16.2225 24.935 16.5225 24.992 16.8465 24.992ZM24.5949 26.108C24.1149 26.108 23.6709 26.021 23.2629 25.847C22.8609 25.673 22.5069 25.43 22.2009 25.118C21.9009 24.806 21.6669 24.44 21.4989 24.02C21.3309 23.6 21.2469 23.141 21.2469 22.643C21.2469 22.145 21.3279 21.686 21.4899 21.266C21.6579 20.84 21.8919 20.474 22.1919 20.168C22.4979 19.856 22.8549 19.616 23.2629 19.448C23.6709 19.274 24.1149 19.187 24.5949 19.187C25.0749 19.187 25.5039 19.268 25.8819 19.43C26.2659 19.592 26.5899 19.808 26.8539 20.078C27.1179 20.342 27.3069 20.633 27.4209 20.951L26.3229 21.464C26.1969 21.128 25.9839 20.852 25.6839 20.636C25.3839 20.414 25.0209 20.303 24.5949 20.303C24.1749 20.303 23.8029 20.402 23.4789 20.6C23.1609 20.798 22.9119 21.071 22.7319 21.419C22.5579 21.767 22.4709 22.175 22.4709 22.643C22.4709 23.111 22.5579 23.522 22.7319 23.876C22.9119 24.224 23.1609 24.497 23.4789 24.695C23.8029 24.893 24.1749 24.992 24.5949 24.992C25.0209 24.992 25.3839 24.884 25.6839 24.668C25.9839 24.446 26.1969 24.167 26.3229 23.831L27.4209 24.344C27.3069 24.662 27.1179 24.956 26.8539 25.226C26.5899 25.49 26.2659 25.703 25.8819 25.865C25.5039 26.027 25.0749 26.108 24.5949 26.108Z" fill="white"/>
</g>
<defs>
<clipPath id="clip0_726_6496">
<rect width="34" height="40" rx="8" fill="white"/>
</clipPath>
</defs>
</svg>
