<svg width="34" height="40" viewBox="0 0 34 40" fill="none" xmlns="http://www.w3.org/2000/svg">
<g clip-path="url(#clip0_726_6515)">
<rect width="34" height="40" rx="8" fill="#30B0C7"/>
<rect x="25" y="-4" width="14" height="14" fill="#238596"/>
<path d="M8.74029 26V19.295H9.96429V26H8.74029ZM11.254 26V19.295H12.424L14.935 22.706H14.377L16.834 19.295H18.004V26H16.771V20.69L17.248 20.807L14.701 24.2H14.557L12.073 20.807L12.478 20.69V26H11.254ZM22.4642 26.108C21.9842 26.108 21.5402 26.021 21.1322 25.847C20.7242 25.673 20.3672 25.43 20.0612 25.118C19.7552 24.806 19.5152 24.44 19.3412 24.02C19.1732 23.6 19.0892 23.141 19.0892 22.643C19.0892 22.145 19.1702 21.686 19.3322 21.266C19.5002 20.84 19.7342 20.474 20.0342 20.168C20.3402 19.856 20.6972 19.616 21.1052 19.448C21.5132 19.274 21.9572 19.187 22.4372 19.187C22.9172 19.187 23.3462 19.268 23.7242 19.43C24.1082 19.592 24.4322 19.808 24.6962 20.078C24.9602 20.342 25.1492 20.633 25.2632 20.951L24.1742 21.473C24.0482 21.125 23.8352 20.843 23.5352 20.627C23.2352 20.411 22.8692 20.303 22.4372 20.303C22.0172 20.303 21.6452 20.402 21.3212 20.6C21.0032 20.798 20.7542 21.071 20.5742 21.419C20.4002 21.767 20.3132 22.175 20.3132 22.643C20.3132 23.111 20.4032 23.522 20.5832 23.876C20.7692 24.224 21.0242 24.497 21.3482 24.695C21.6722 24.893 22.0442 24.992 22.4642 24.992C22.8062 24.992 23.1212 24.926 23.4092 24.794C23.6972 24.656 23.9282 24.464 24.1022 24.218C24.2762 23.966 24.3632 23.669 24.3632 23.327V22.814L24.9212 23.3H22.4372V22.265H25.5872V22.94C25.5872 23.456 25.5002 23.912 25.3262 24.308C25.1522 24.704 24.9152 25.037 24.6152 25.307C24.3212 25.571 23.9882 25.772 23.6162 25.91C23.2442 26.042 22.8602 26.108 22.4642 26.108Z" fill="white"/>
</g>
<defs>
<clipPath id="clip0_726_6515">
<rect width="34" height="40" rx="8" fill="white"/>
</clipPath>
</defs>
</svg>
