<svg width="34" height="40" viewBox="0 0 34 40" fill="none" xmlns="http://www.w3.org/2000/svg">
<g clip-path="url(#clip0_652_6384)">
<rect width="34" height="40" rx="8" fill="#EF3838"/>
<rect x="25" y="-4" width="14" height="14" fill="#B22121"/>
<path d="M8.76226 26V19.295H11.2643C11.7203 19.295 12.1223 19.379 12.4703 19.547C12.8243 19.709 13.1003 19.949 13.2983 20.267C13.4963 20.579 13.5953 20.96 13.5953 21.41C13.5953 21.854 13.4933 22.235 13.2893 22.553C13.0913 22.865 12.8183 23.105 12.4703 23.273C12.1223 23.441 11.7203 23.525 11.2643 23.525H9.98626V26H8.76226ZM9.98626 22.445H11.2823C11.5043 22.445 11.6963 22.403 11.8583 22.319C12.0203 22.229 12.1463 22.106 12.2363 21.95C12.3263 21.794 12.3713 21.614 12.3713 21.41C12.3713 21.2 12.3263 21.02 12.2363 20.87C12.1463 20.714 12.0203 20.594 11.8583 20.51C11.6963 20.42 11.5043 20.375 11.2823 20.375H9.98626V22.445ZM14.5982 26V19.295H16.7852C17.4932 19.295 18.1082 19.439 18.6302 19.727C19.1582 20.009 19.5662 20.402 19.8542 20.906C20.1422 21.404 20.2862 21.983 20.2862 22.643C20.2862 23.297 20.1422 23.879 19.8542 24.389C19.5662 24.893 19.1582 25.289 18.6302 25.577C18.1082 25.859 17.4932 26 16.7852 26H14.5982ZM15.8222 24.92H16.8122C17.2682 24.92 17.6612 24.827 17.9912 24.641C18.3272 24.449 18.5882 24.185 18.7742 23.849C18.9602 23.507 19.0532 23.105 19.0532 22.643C19.0532 22.175 18.9602 21.773 18.7742 21.437C18.5882 21.101 18.3272 20.84 17.9912 20.654C17.6612 20.468 17.2682 20.375 16.8122 20.375H15.8222V24.92ZM21.2603 26V19.295H25.7333V20.375H22.4843V22.229H25.3283V23.309H22.4843V26H21.2603Z" fill="white"/>
</g>
<defs>
<clipPath id="clip0_652_6384">
<rect width="34" height="40" rx="8" fill="white"/>
</clipPath>
</defs>
</svg>
