<svg width="34" height="40" viewBox="0 0 34 40" fill="none" xmlns="http://www.w3.org/2000/svg">
<g clip-path="url(#clip0_652_6450)">
<rect width="34" height="40" rx="8" fill="#F5690B"/>
<rect x="25" y="-4" width="14" height="14" fill="#B24321"/>
<path d="M9.3731 26V19.295H11.8751C12.3311 19.295 12.7331 19.379 13.0811 19.547C13.4351 19.709 13.7111 19.949 13.9091 20.267C14.1071 20.579 14.2061 20.96 14.2061 21.41C14.2061 21.854 14.1041 22.235 13.9001 22.553C13.7021 22.865 13.4291 23.105 13.0811 23.273C12.7331 23.441 12.3311 23.525 11.8751 23.525H10.5971V26H9.3731ZM10.5971 22.445H11.8931C12.1151 22.445 12.3071 22.403 12.4691 22.319C12.6311 22.229 12.7571 22.106 12.8471 21.95C12.9371 21.794 12.9821 21.614 12.9821 21.41C12.9821 21.2 12.9371 21.02 12.8471 20.87C12.7571 20.714 12.6311 20.594 12.4691 20.51C12.3071 20.42 12.1151 20.375 11.8931 20.375H10.5971V22.445ZM15.209 26V19.295H17.711C18.167 19.295 18.569 19.379 18.917 19.547C19.271 19.709 19.547 19.949 19.745 20.267C19.943 20.579 20.042 20.96 20.042 21.41C20.042 21.854 19.94 22.235 19.736 22.553C19.538 22.865 19.265 23.105 18.917 23.273C18.569 23.441 18.167 23.525 17.711 23.525H16.433V26H15.209ZM16.433 22.445H17.729C17.951 22.445 18.143 22.403 18.305 22.319C18.467 22.229 18.593 22.106 18.683 21.95C18.773 21.794 18.818 21.614 18.818 21.41C18.818 21.2 18.773 21.02 18.683 20.87C18.593 20.714 18.467 20.594 18.305 20.51C18.143 20.42 17.951 20.375 17.729 20.375H16.433V22.445ZM22.233 26V20.375H20.496V19.295H25.176V20.375H23.466V26H22.233Z" fill="white"/>
</g>
<defs>
<clipPath id="clip0_652_6450">
<rect width="34" height="40" rx="8" fill="white"/>
</clipPath>
</defs>
</svg>
