<svg width="34" height="40" viewBox="0 0 34 40" fill="none" xmlns="http://www.w3.org/2000/svg">
<g clip-path="url(#clip0_652_6434)">
<rect width="34" height="40" rx="8" fill="#F59E0B"/>
<rect x="25" y="-4" width="14" height="14" fill="#B26C21"/>
<path d="M10.3804 26V25.037L13.6294 20.375H10.5694V19.295H15.1864V20.258L11.9464 24.92H15.2764V26H10.3804ZM16.044 26V19.295H17.268V26H16.044ZM18.5577 26V19.295H21.0597C21.5157 19.295 21.9177 19.379 22.2657 19.547C22.6197 19.709 22.8957 19.949 23.0937 20.267C23.2917 20.579 23.3907 20.96 23.3907 21.41C23.3907 21.854 23.2887 22.235 23.0847 22.553C22.8867 22.865 22.6137 23.105 22.2657 23.273C21.9177 23.441 21.5157 23.525 21.0597 23.525H19.7817V26H18.5577ZM19.7817 22.445H21.0777C21.2997 22.445 21.4917 22.403 21.6537 22.319C21.8157 22.229 21.9417 22.106 22.0317 21.95C22.1217 21.794 22.1667 21.614 22.1667 21.41C22.1667 21.2 22.1217 21.02 22.0317 20.87C21.9417 20.714 21.8157 20.594 21.6537 20.51C21.4917 20.42 21.2997 20.375 21.0777 20.375H19.7817V22.445Z" fill="white"/>
</g>
<defs>
<clipPath id="clip0_652_6434">
<rect width="34" height="40" rx="8" fill="white"/>
</clipPath>
</defs>
</svg>
