<svg width="180" height="178" viewBox="0 0 180 178" fill="none" xmlns="http://www.w3.org/2000/svg">
<circle opacity="0.5" cx="87.1587" cy="113" r="65" fill="#3762E3"/>
<path d="M87.6587 61C59.2099 61 36.1587 84.0512 36.1587 112.5C36.1587 140.949 59.2099 164 87.6587 164C116.107 164 139.159 140.949 139.159 112.5C139.159 84.0512 116.107 61 87.6587 61ZM79.7109 130.748C79.1166 131.342 78.2748 131.837 77.532 131.837C76.7892 131.837 75.9474 131.317 75.3284 130.723L61.463 116.858L65.8702 112.45L77.5568 124.137L108.457 93.0142L112.79 97.4957L79.7109 130.748Z" fill="#3762E3"/>
<path d="M80.6819 131.816C80.0461 132.462 79.1454 133 78.3507 133C77.556 133 76.6554 132.435 75.9931 131.789L61.1587 116.72L65.8739 111.93L77.6076 124.252L109.152 92L114.159 96.8884L80.6819 131.816Z" fill="white"/>
<path d="M99.0782 29.0479C99.7063 32.1881 93.5827 33.4966 90.4424 33.7583L92.7976 37.6837C99.0782 37.6837 101.695 33.4966 102.218 31.4031L99.0782 29.0479Z" fill="#3762E3" stroke="#144617"/>
<path d="M69.3691 2.01868C71.0525 1.55787 72.0059 4.762 72.2722 6.42167L74.3145 5.01054C74.0666 1.67008 71.6857 0.447237 70.5263 0.253376L69.3691 2.01868Z" fill="#3762E3" stroke="#144617"/>
<path d="M55.4504 50.1602C54.4354 48.7404 57.1114 46.7368 58.5762 45.9124L56.5454 44.4849C53.4973 45.8738 53.1742 48.5308 53.3937 49.6857L55.4504 50.1602Z" fill="#3762E3" stroke="#144617"/>
<path d="M174.31 69.5687C176.012 69.1817 176.825 72.4244 177.018 74.0941L179.12 72.7733C179.018 69.4252 176.693 68.0998 175.543 67.8555L174.31 69.5687Z" fill="#3762E3" stroke="#144617"/>
<path d="M137.65 86.1208C139.492 84.8174 142.066 88.2902 143.122 90.1896L144.981 87.5728C143.204 83.6227 139.771 83.188 138.276 83.4644L137.65 86.1208Z" fill="#3762E3" stroke="#144617"/>
<path d="M7.51881 56.0198C5.47674 56.9806 3.55089 53.1107 2.84323 51.0557L0.554976 53.3066C1.61234 57.5068 4.91665 58.5359 6.43663 58.5255L7.51881 56.0198Z" fill="#3762E3" stroke="#144617"/>
<path d="M20.9338 95.5477C22.6695 94.1054 25.5046 97.3683 26.7052 99.1801L28.3556 96.427C26.2783 92.6265 22.8215 92.4593 21.3527 92.8507L20.9338 95.5477Z" fill="#3762E3" stroke="#144617"/>
<path d="M139.797 23.5522C140.132 25.2651 136.866 25.9788 135.191 26.1216L136.448 28.2627C139.797 28.2627 141.193 25.9788 141.472 24.8369L139.797 23.5522Z" fill="#3762E3" stroke="#144617"/>
<line x1="22.2911" y1="28.4127" x2="22.2911" y2="32.8231" stroke="#144617" stroke-width="0.3" stroke-linecap="round"/>
<line x1="22.2911" y1="37.8336" x2="22.2911" y2="42.244" stroke="#144617" stroke-width="0.3" stroke-linecap="round"/>
<line x1="25.4313" y1="35.9633" x2="29.8417" y2="35.9633" stroke="#144617" stroke-width="0.3" stroke-linecap="round"/>
<line x1="16.0104" y1="35.9633" x2="20.4208" y2="35.9633" stroke="#144617" stroke-width="0.3" stroke-linecap="round"/>
<line x1="19.4035" y1="31.5938" x2="20.7616" y2="32.9518" stroke="#144617" stroke-width="0.3" stroke-linecap="round"/>
<line x1="25.2812" y1="32.761" x2="26.6393" y2="31.403" stroke="#144617" stroke-width="0.3" stroke-linecap="round"/>
<line x1="19.0005" y1="39.0418" x2="20.3585" y2="37.6838" stroke="#144617" stroke-width="0.3" stroke-linecap="round"/>
<line x1="144.762" y1="55.1051" x2="144.762" y2="59.5155" stroke="#144617" stroke-width="0.3" stroke-linecap="round"/>
<line x1="144.762" y1="64.526" x2="144.762" y2="68.9364" stroke="#144617" stroke-width="0.3" stroke-linecap="round"/>
<line x1="147.902" y1="62.6557" x2="152.313" y2="62.6557" stroke="#144617" stroke-width="0.3" stroke-linecap="round"/>
<line x1="138.482" y1="62.6557" x2="142.892" y2="62.6557" stroke="#144617" stroke-width="0.3" stroke-linecap="round"/>
<line x1="141.875" y1="58.2861" x2="143.233" y2="59.6441" stroke="#144617" stroke-width="0.3" stroke-linecap="round"/>
<line x1="147.752" y1="59.4534" x2="149.11" y2="58.0954" stroke="#144617" stroke-width="0.3" stroke-linecap="round"/>
<line x1="141.472" y1="65.7342" x2="142.83" y2="64.3761" stroke="#144617" stroke-width="0.3" stroke-linecap="round"/>
</svg>
