<svg width="10" height="11" viewBox="0 0 10 11" fill="none" xmlns="http://www.w3.org/2000/svg">
<path d="M2.196 0.594228C2.34653 0.47911 2.37094 0.269136 2.25051 0.125239C2.13008 -0.0186587 1.91043 -0.0419891 1.7599 0.073129L0.5964 0.962906C0.445868 1.07802 0.421462 1.288 0.541887 1.4319C0.662313 1.57579 0.881967 1.59912 1.0325 1.48401L2.196 0.594228Z" fill="#737378"/>
<path d="M8.24619 0.073129C8.09566 -0.0419891 7.87601 -0.0186587 7.75558 0.125239C7.63515 0.269136 7.65956 0.47911 7.81009 0.594228L8.97359 1.48401C9.12412 1.59912 9.34378 1.57579 9.4642 1.4319C9.58463 1.288 9.56022 1.07802 9.40969 0.962906L8.24619 0.073129Z" fill="#737378"/>
<path d="M5.3521 3.4479C5.3521 3.26362 5.19582 3.11423 5.00305 3.11423C4.81027 3.11423 4.654 3.26362 4.654 3.4479V5.31903C4.654 5.46086 4.59731 5.59732 4.49553 5.70052L3.81828 6.3872C3.68603 6.52128 3.69254 6.73245 3.8328 6.85887C3.97306 6.98528 4.19397 6.97907 4.32622 6.84498L5.00347 6.1583C5.22739 5.93128 5.3521 5.63105 5.3521 5.31903V3.4479Z" fill="#737378"/>
<path fill-rule="evenodd" clip-rule="evenodd" d="M5.00305 0.4449C2.23994 0.4449 0 2.58612 0 5.22745C0 7.86878 2.23994 10.01 5.00305 10.01C7.76615 10.01 10.0061 7.86878 10.0061 5.22745C10.0061 2.58612 7.76615 0.4449 5.00305 0.4449ZM0.698099 5.22745C0.698099 2.95468 2.62549 1.11223 5.00305 1.11223C7.3806 1.11223 9.30799 2.95468 9.30799 5.22745C9.30799 7.50022 7.3806 9.34267 5.00305 9.34267C2.62549 9.34267 0.698099 7.50022 0.698099 5.22745Z" fill="#737378"/>
</svg>
