<svg width="14" height="15" viewBox="0 0 14 15" fill="none" xmlns="http://www.w3.org/2000/svg">
<path d="M12.375 1.125H10.6875V0.5625C10.6875 0.413316 10.6282 0.270242 10.5227 0.164752C10.4173 0.0592632 10.2742 0 10.125 0C9.97582 0 9.83274 0.0592632 9.72725 0.164752C9.62176 0.270242 9.5625 0.413316 9.5625 0.5625V1.125H3.9375V0.5625C3.9375 0.413316 3.87824 0.270242 3.77275 0.164752C3.66726 0.0592632 3.52418 0 3.375 0C3.22582 0 3.08274 0.0592632 2.97725 0.164752C2.87176 0.270242 2.8125 0.413316 2.8125 0.5625V1.125H1.125C0.826631 1.125 0.540483 1.24353 0.329505 1.4545C0.118526 1.66548 0 1.95163 0 2.25V13.5C0 13.7984 0.118526 14.0845 0.329505 14.2955C0.540483 14.5065 0.826631 14.625 1.125 14.625H12.375C12.6734 14.625 12.9595 14.5065 13.1705 14.2955C13.3815 14.0845 13.5 13.7984 13.5 13.5V2.25C13.5 1.95163 13.3815 1.66548 13.1705 1.4545C12.9595 1.24353 12.6734 1.125 12.375 1.125ZM2.8125 2.25V2.8125C2.8125 2.96168 2.87176 3.10476 2.97725 3.21025C3.08274 3.31574 3.22582 3.375 3.375 3.375C3.52418 3.375 3.66726 3.31574 3.77275 3.21025C3.87824 3.10476 3.9375 2.96168 3.9375 2.8125V2.25H9.5625V2.8125C9.5625 2.96168 9.62176 3.10476 9.72725 3.21025C9.83274 3.31574 9.97582 3.375 10.125 3.375C10.2742 3.375 10.4173 3.31574 10.5227 3.21025C10.6282 3.10476 10.6875 2.96168 10.6875 2.8125V2.25H12.375V4.5H1.125V2.25H2.8125ZM12.375 13.5H1.125V5.625H12.375V13.5ZM5.625 7.3125V11.8125C5.625 11.9617 5.56574 12.1048 5.46025 12.2102C5.35476 12.3157 5.21168 12.375 5.0625 12.375C4.91332 12.375 4.77024 12.3157 4.66475 12.2102C4.55926 12.1048 4.5 11.9617 4.5 11.8125V8.22234L4.18922 8.37844C4.0557 8.4452 3.90113 8.45618 3.75951 8.40898C3.61789 8.36177 3.50082 8.26024 3.43406 8.12672C3.3673 7.9932 3.35632 7.83863 3.40352 7.69701C3.45073 7.55539 3.55226 7.43832 3.68578 7.37156L4.81078 6.80906C4.89657 6.76613 4.99191 6.74586 5.08775 6.75016C5.18358 6.75447 5.27672 6.78321 5.35832 6.83366C5.43991 6.88411 5.50725 6.95459 5.55393 7.0384C5.6006 7.12221 5.62507 7.21657 5.625 7.3125ZM9.78469 9.45352L8.4375 11.25H9.5625C9.71168 11.25 9.85476 11.3093 9.96025 11.4148C10.0657 11.5202 10.125 11.6633 10.125 11.8125C10.125 11.9617 10.0657 12.1048 9.96025 12.2102C9.85476 12.3157 9.71168 12.375 9.5625 12.375H7.3125C7.20804 12.375 7.10564 12.3459 7.01678 12.291C6.92791 12.2361 6.8561 12.1575 6.80939 12.0641C6.76267 11.9706 6.74289 11.866 6.75227 11.762C6.76165 11.6579 6.79982 11.5586 6.8625 11.475L8.88609 8.77711C8.93212 8.71583 8.96514 8.6458 8.98313 8.5713C9.00112 8.4968 9.00369 8.41941 8.9907 8.34389C8.9777 8.26836 8.94941 8.19628 8.90755 8.13208C8.8657 8.06788 8.81117 8.01291 8.74731 7.97054C8.68344 7.92818 8.6116 7.89931 8.53617 7.88571C8.46075 7.8721 8.38335 7.87406 8.30871 7.89145C8.23407 7.90884 8.16377 7.9413 8.10213 7.98683C8.04048 8.03237 7.9888 8.09002 7.95023 8.15625C7.91439 8.22226 7.86569 8.28042 7.807 8.32731C7.74831 8.37419 7.68083 8.40885 7.60853 8.42923C7.53623 8.44961 7.46059 8.4553 7.38605 8.44597C7.31152 8.43664 7.23961 8.41248 7.17456 8.37491C7.10952 8.33734 7.05266 8.28712 7.00734 8.22722C6.96202 8.16732 6.92915 8.09895 6.91068 8.02614C6.89221 7.95333 6.88851 7.87756 6.8998 7.80329C6.91109 7.72903 6.93714 7.65778 6.97641 7.59375C7.16222 7.2722 7.44891 7.02093 7.79204 6.87888C8.13517 6.73683 8.51558 6.71194 8.8743 6.80807C9.23302 6.9042 9.55 7.11598 9.77613 7.41057C10.0022 7.70517 10.1249 8.06613 10.125 8.4375C10.1262 8.80435 10.0066 9.16139 9.78469 9.45352Z" fill="#737378"/>
</svg>
