<svg width="20" height="22" viewBox="0 0 20 22" fill="none" xmlns="http://www.w3.org/2000/svg">
<path d="M2.66117 19.6452L3.01384 19.1598L2.66117 19.6452ZM1.55501 18.539L2.04042 18.1864L1.55501 18.539ZM17.6452 18.539L17.1598 18.1864L17.6452 18.539ZM16.539 19.6452L16.8917 20.1306L16.539 19.6452ZM16.539 3.55501L16.8917 3.0696L16.539 3.55501ZM17.6452 4.66117L17.1598 5.01384V5.01384L17.6452 4.66117ZM2.66117 3.55501L3.01384 4.04042V4.04042L2.66117 3.55501ZM1.55501 4.66117L2.04042 5.01384V5.01384L1.55501 4.66117ZM16.8179 14.6617L16.7241 14.069V14.069L16.8179 14.6617ZM12.6617 18.8179L12.069 18.7241V18.7241L12.6617 18.8179ZM6.6001 12.0001C6.26873 12.0001 6.0001 12.2687 6.0001 12.6001C6.0001 12.9315 6.26873 13.2001 6.6001 13.2001V12.6001V12.0001ZM12.6001 13.2001C12.9315 13.2001 13.2001 12.9315 13.2001 12.6001C13.2001 12.2687 12.9315 12.0001 12.6001 12.0001V12.6001V13.2001ZM12.0001 3.6001C12.0001 3.93147 12.2687 4.2001 12.6001 4.2001C12.9315 4.2001 13.2001 3.93147 13.2001 3.6001H12.6001H12.0001ZM13.2001 0.600098C13.2001 0.268727 12.9315 9.76324e-05 12.6001 9.76324e-05C12.2687 9.76324e-05 12.0001 0.268727 12.0001 0.600098H12.6001H13.2001ZM6.0001 3.6001C6.0001 3.93147 6.26873 4.2001 6.6001 4.2001C6.93147 4.2001 7.2001 3.93147 7.2001 3.6001H6.6001H6.0001ZM7.2001 0.600098C7.2001 0.268727 6.93147 9.76324e-05 6.6001 9.76324e-05C6.26873 9.76324e-05 6.0001 0.268727 6.0001 0.600098H6.6001H7.2001ZM18.5712 14.6001L19.1708 14.6206L18.5712 14.6001ZM0.629026 8.6001L0.0293779 8.57955L0.629026 8.6001ZM18.5712 8.6001L19.1708 8.57955L18.5712 8.6001ZM9.6001 20.6001V20.0001C7.71187 20.0001 6.34389 19.9993 5.28199 19.8842C4.23131 19.7704 3.55168 19.5505 3.01384 19.1598L2.66117 19.6452L2.3085 20.1306C3.08499 20.6947 3.99996 20.9523 5.15273 21.0772C6.29428 21.2009 7.7386 21.2001 9.6001 21.2001V20.6001ZM0.600098 11.6001H9.76324e-05C9.76324e-05 13.4616 -0.000725925 14.9059 0.122953 16.0475C0.247848 17.2002 0.505448 18.1152 1.0696 18.8917L1.55501 18.539L2.04042 18.1864C1.64966 17.6485 1.4298 16.9689 1.31597 15.9182C1.20092 14.8563 1.2001 13.4883 1.2001 11.6001H0.600098ZM2.66117 19.6452L3.01384 19.1598C2.64031 18.8884 2.31181 18.5599 2.04042 18.1864L1.55501 18.539L1.0696 18.8917C1.41501 19.3671 1.83309 19.7852 2.3085 20.1306L2.66117 19.6452ZM17.6452 18.539L17.1598 18.1864C16.8884 18.5599 16.5599 18.8884 16.1864 19.1598L16.539 19.6452L16.8917 20.1306C17.3671 19.7852 17.7852 19.3671 18.1306 18.8917L17.6452 18.539ZM16.539 3.55501L16.1864 4.04042C16.5599 4.31181 16.8884 4.64031 17.1598 5.01384L17.6452 4.66117L18.1306 4.3085C17.7852 3.83309 17.3671 3.41501 16.8917 3.0696L16.539 3.55501ZM2.66117 3.55501L2.3085 3.0696C1.83309 3.41501 1.41501 3.83309 1.0696 4.3085L1.55501 4.66117L2.04042 5.01384C2.31181 4.64031 2.64031 4.31181 3.01384 4.04042L2.66117 3.55501ZM16.8179 14.6617L16.7241 14.069C14.3279 14.4486 12.4486 16.3279 12.069 18.7241L12.6617 18.8179L13.2543 18.9118C13.5525 17.0291 15.0291 15.5525 16.9118 15.2543L16.8179 14.6617ZM6.6001 12.6001V13.2001H12.6001V12.6001V12.0001H6.6001V12.6001ZM18.5712 14.6001L18.5712 14.0001C17.6834 14.0001 17.1669 13.9989 16.7241 14.069L16.8179 14.6617L16.9118 15.2543C17.2382 15.2026 17.6394 15.2001 18.5712 15.2001L18.5712 14.6001ZM18.6001 11.6001H18.0001C18.0001 12.7723 18 13.7477 17.9715 14.5796L18.5712 14.6001L19.1708 14.6206C19.2002 13.7638 19.2001 12.7657 19.2001 11.6001H18.6001ZM18.5712 14.6001L17.9715 14.5796C17.9079 16.4363 17.7013 17.441 17.1598 18.1864L17.6452 18.539L18.1306 18.8917C18.9035 17.8278 19.1067 16.4922 19.1708 14.6206L18.5712 14.6001ZM12.6001 20.5712L13.2001 20.5712C13.2001 19.6394 13.2026 19.2382 13.2543 18.9118L12.6617 18.8179L12.069 18.7241C11.9989 19.1669 12.0001 19.6834 12.0001 20.5712L12.6001 20.5712ZM9.6001 20.6001V21.2001C10.7657 21.2001 11.7638 21.2002 12.6206 21.1708L12.6001 20.5712L12.5796 19.9715C11.7477 20 10.7723 20.0001 9.6001 20.0001V20.6001ZM12.6001 20.5712L12.6206 21.1708C14.4922 21.1067 15.8278 20.9035 16.8917 20.1306L16.539 19.6452L16.1864 19.1598C15.441 19.7013 14.4363 19.9079 12.5796 19.9715L12.6001 20.5712ZM0.600098 11.6001H1.2001C1.2001 10.4279 1.20017 9.45253 1.22867 8.62064L0.629026 8.6001L0.0293779 8.57955C2.2471e-05 9.43636 9.76324e-05 10.4345 9.76324e-05 11.6001H0.600098ZM0.629026 8.6001L1.22867 8.62064C1.29229 6.76386 1.49889 5.7592 2.04042 5.01384L1.55501 4.66117L1.0696 4.3085C0.296671 5.37235 0.0935012 6.70796 0.0293779 8.57955L0.629026 8.6001ZM0.629026 8.6001V9.2001H18.5712V8.6001V8.0001H0.629026V8.6001ZM18.6001 11.6001H19.2001C19.2001 10.4345 19.2002 9.43636 19.1708 8.57955L18.5712 8.6001L17.9715 8.62064C18 9.45253 18.0001 10.4279 18.0001 11.6001H18.6001ZM18.5712 8.6001L19.1708 8.57955C19.1067 6.70796 18.9035 5.37235 18.1306 4.3085L17.6452 4.66117L17.1598 5.01384C17.7013 5.7592 17.9079 6.76386 17.9715 8.62064L18.5712 8.6001ZM12.6001 3.6001H13.2001V2.62903H12.6001H12.0001V3.6001H12.6001ZM12.6001 2.62903H13.2001V0.600098H12.6001H12.0001V2.62903H12.6001ZM9.6001 2.6001V3.2001C10.7723 3.2001 11.7477 3.20017 12.5796 3.22867L12.6001 2.62903L12.6206 2.02938C11.7638 2.00002 10.7657 2.0001 9.6001 2.0001V2.6001ZM12.6001 2.62903L12.5796 3.22867C14.4363 3.29229 15.441 3.49889 16.1864 4.04042L16.539 3.55501L16.8917 3.0696C15.8278 2.29667 14.4922 2.0935 12.6206 2.02938L12.6001 2.62903ZM6.6001 3.6001H7.2001V2.62903H6.6001H6.0001V3.6001H6.6001ZM6.6001 2.62903H7.2001V0.600098H6.6001H6.0001V2.62903H6.6001ZM9.6001 2.6001V2.0001C8.43449 2.0001 7.43636 2.00002 6.57955 2.02938L6.6001 2.62903L6.62064 3.22867C7.45253 3.20017 8.42785 3.2001 9.6001 3.2001V2.6001ZM6.6001 2.62903L6.57955 2.02938C4.70796 2.0935 3.37235 2.29667 2.3085 3.0696L2.66117 3.55501L3.01384 4.04042C3.7592 3.49889 4.76386 3.29229 6.62064 3.22867L6.6001 2.62903Z" fill="#737378"/>
</svg>
