<svg width="17" height="17" viewBox="0 0 17 17" fill="none" xmlns="http://www.w3.org/2000/svg">
<path d="M3.88135 0.600098V2.56885M13.0688 0.600098V2.56885M0.600098 14.3813V4.5376C0.600098 4.01545 0.807519 3.51469 1.17673 3.14548C1.54594 2.77627 2.0467 2.56885 2.56885 2.56885H14.3813C14.9035 2.56885 15.4043 2.77627 15.7735 3.14548C16.1427 3.51469 16.3501 4.01545 16.3501 4.5376V14.3813M16.3501 14.3813V7.81885C16.3501 7.2967 16.1427 6.79594 15.7735 6.42673C15.4043 6.05752 14.9035 5.8501 14.3813 5.8501H2.56885C2.0467 5.8501 1.54594 6.05752 1.17673 6.42673C0.807519 6.79594 0.600098 7.2967 0.600098 7.81885V14.3813C0.600098 14.9035 0.807519 15.4043 1.17673 15.7735C1.54594 16.1427 2.0467 16.3501 2.56885 16.3501H14.3813C14.9035 16.3501 15.4043 16.1427 15.7735 15.7735C16.1427 15.4043 16.3501 14.9035 16.3501 14.3813Z" stroke="#737378" stroke-width="1.2" stroke-linecap="round" stroke-linejoin="round"/>
</svg>
