<svg width="11" height="12" viewBox="0 0 11 12" fill="none" xmlns="http://www.w3.org/2000/svg">
<path d="M9.71558 5.37814C9.75626 5.41877 9.78853 5.46702 9.81055 5.52013C9.83257 5.57325 9.8439 5.63018 9.8439 5.68767C9.8439 5.74516 9.83257 5.80209 9.81055 5.85521C9.78853 5.90832 9.75626 5.95657 9.71558 5.9972L5.22847 10.4816C4.65404 11.0559 3.87497 11.3786 3.06266 11.3785C2.25034 11.3785 1.47131 11.0557 0.896951 10.4813C0.322592 9.90687 -5.12648e-05 9.1278 6.10963e-09 8.31549C5.1277e-05 7.50317 0.322793 6.72414 0.897225 6.14978L6.32551 0.641654C6.73561 0.231118 7.292 0.000307985 7.87228 3.07999e-07C8.45255 -0.000307369 9.00919 0.229912 9.41973 0.640014C9.83026 1.05012 10.0611 1.6065 10.0614 2.18678C10.0617 2.76706 9.83147 3.3237 9.42137 3.73423L3.99199 9.24236C3.74542 9.48893 3.411 9.62745 3.0623 9.62745C2.7136 9.62745 2.37918 9.48893 2.13262 9.24236C1.88605 8.99579 1.74753 8.66137 1.74753 8.31267C1.74753 7.96397 1.88605 7.62955 2.13262 7.38298L6.68808 2.75533C6.72799 2.71276 6.77601 2.6786 6.82931 2.65486C6.88262 2.63113 6.94013 2.6183 6.99847 2.61712C7.0568 2.61595 7.11479 2.62646 7.169 2.64803C7.22322 2.6696 7.27257 2.70179 7.31416 2.74272C7.35574 2.78365 7.38872 2.83249 7.41115 2.88635C7.43358 2.94022 7.44501 2.99803 7.44477 3.05638C7.44452 3.11473 7.43261 3.17244 7.40972 3.22611C7.38684 3.27979 7.35345 3.32834 7.31152 3.36892L2.75551 8.0015C2.71471 8.04197 2.68229 8.09007 2.66009 8.14307C2.63789 8.19607 2.62635 8.25292 2.62612 8.31038C2.62589 8.36784 2.63698 8.42478 2.65876 8.47796C2.68054 8.53113 2.71258 8.5795 2.75304 8.62029C2.79351 8.66108 2.84162 8.6935 2.89462 8.7157C2.94762 8.7379 3.00447 8.74944 3.06193 8.74967C3.11939 8.7499 3.17633 8.73881 3.22951 8.71703C3.28268 8.69526 3.33104 8.66322 3.37183 8.62275L8.80066 3.11736C9.04723 2.8713 9.18595 2.53736 9.18631 2.18902C9.18667 1.84068 9.04864 1.50646 8.80258 1.2599C8.55652 1.01333 8.22258 0.874606 7.87424 0.874247C7.5259 0.873888 7.19168 1.01192 6.94512 1.25798L1.51793 6.76392C1.31461 6.96691 1.15327 7.20796 1.04312 7.4733C0.932963 7.73864 0.876149 8.02308 0.87592 8.31038C0.875691 8.59768 0.932053 8.88221 1.04179 9.14773C1.15152 9.41325 1.31248 9.65455 1.51547 9.85787C1.71846 10.0612 1.9595 10.2225 2.22485 10.3327C2.49019 10.4428 2.77463 10.4996 3.06193 10.4999C3.34923 10.5001 3.63376 10.4437 3.89928 10.334C4.1648 10.2243 4.4061 10.0633 4.60941 9.86033L9.09707 5.37595C9.1794 5.29426 9.2908 5.24859 9.40678 5.249C9.52276 5.24941 9.63384 5.29586 9.71558 5.37814Z" fill="#111113"/>
</svg>
