<svg width="15" height="7" viewBox="0 0 15 7" fill="none" xmlns="http://www.w3.org/2000/svg">
<path d="M4.5 3H10.5C10.6326 3 10.7598 3.05268 10.8536 3.14645C10.9473 3.24021 11 3.36739 11 3.5C11 3.63261 10.9473 3.75979 10.8536 3.85355C10.7598 3.94732 10.6326 4 10.5 4H4.5C4.36739 4 4.24021 3.94732 4.14645 3.85355C4.05268 3.75979 4 3.63261 4 3.5C4 3.36739 4.05268 3.24021 4.14645 3.14645C4.24021 3.05268 4.36739 3 4.5 3ZM6 6H3.5C2.83696 6 2.20107 5.73661 1.73223 5.26777C1.26339 4.79893 1 4.16304 1 3.5C1 2.83696 1.26339 2.20107 1.73223 1.73223C2.20107 1.26339 2.83696 1 3.5 1H6C6.13261 1 6.25979 0.947321 6.35355 0.853553C6.44732 0.759785 6.5 0.632608 6.5 0.5C6.5 0.367392 6.44732 0.240215 6.35355 0.146447C6.25979 0.0526785 6.13261 0 6 0H3.5C2.57174 0 1.6815 0.368749 1.02513 1.02513C0.368749 1.6815 0 2.57174 0 3.5C0 4.42826 0.368749 5.3185 1.02513 5.97487C1.6815 6.63125 2.57174 7 3.5 7H6C6.13261 7 6.25979 6.94732 6.35355 6.85355C6.44732 6.75979 6.5 6.63261 6.5 6.5C6.5 6.36739 6.44732 6.24021 6.35355 6.14645C6.25979 6.05268 6.13261 6 6 6ZM11.5 0H9C8.86739 0 8.74021 0.0526785 8.64645 0.146447C8.55268 0.240215 8.5 0.367392 8.5 0.5C8.5 0.632608 8.55268 0.759785 8.64645 0.853553C8.74021 0.947321 8.86739 1 9 1H11.5C12.163 1 12.7989 1.26339 13.2678 1.73223C13.7366 2.20107 14 2.83696 14 3.5C14 4.16304 13.7366 4.79893 13.2678 5.26777C12.7989 5.73661 12.163 6 11.5 6H9C8.86739 6 8.74021 6.05268 8.64645 6.14645C8.55268 6.24021 8.5 6.36739 8.5 6.5C8.5 6.63261 8.55268 6.75979 8.64645 6.85355C8.74021 6.94732 8.86739 7 9 7H11.5C12.4283 7 13.3185 6.63125 13.9749 5.97487C14.6313 5.3185 15 4.42826 15 3.5C15 2.57174 14.6313 1.6815 13.9749 1.02513C13.3185 0.368749 12.4283 0 11.5 0Z" fill="#737378"/>
</svg>
