<svg width="20" height="20" viewBox="0 0 20 20" fill="none" xmlns="http://www.w3.org/2000/svg">
<path d="M10 10C11.1046 10 12 10.8954 12 12C12 13.1046 11.1046 14 10 14C8.89543 14 8 13.1046 8 12C8 10.8954 8.89543 10 10 10Z" fill="#737378"/>
<path d="M4 10C5.10457 10 6 10.8954 6 12C6 13.1046 5.10457 14 4 14C2.89543 14 2 13.1046 2 12C2 10.8954 2.89543 10 4 10Z" fill="#737378"/>
<path d="M16 10C17.1046 10 18 10.8954 18 12C18 13.1046 17.1046 14 16 14C14.8954 14 14 13.1046 14 12C14 10.8954 14.8954 10 16 10Z" fill="#737378"/>
</svg>
