<svg width="14" height="14" viewBox="0 0 14 14" fill="none" xmlns="http://www.w3.org/2000/svg">
<path fill-rule="evenodd" clip-rule="evenodd" d="M2.00964 4.77086C2.22236 3.6536 2.76088 2.58571 3.62427 1.72124C5.91637 -0.573745 9.63284 -0.573745 11.9249 1.72124C12.6241 2.42133 13.2416 3.45765 13.5117 4.60819C13.7834 5.76569 13.7081 7.06589 12.9742 8.24821C12.9367 8.30875 12.9134 8.34627 12.897 8.37433C12.8894 8.38727 12.8855 8.39465 12.8838 8.39783C12.8822 8.40188 12.8813 8.40468 12.8808 8.40643C12.8808 8.40853 12.8808 8.4121 12.8812 8.4175C12.8817 8.42001 12.8827 8.42549 12.8848 8.43494C12.8903 8.45897 12.8985 8.49111 12.9132 8.54792L12.9175 8.5644C13.0018 8.88997 13.0711 9.15756 13.1118 9.37376C13.1528 9.5914 13.1765 9.81106 13.1329 10.0256C13.0086 10.6372 12.531 11.1157 11.9194 11.2403C11.7048 11.2841 11.4851 11.2603 11.2677 11.2192C11.0517 11.1784 10.7844 11.109 10.4593 11.0247L10.4428 11.0204C10.3861 11.0057 10.354 10.9974 10.33 10.992C10.3206 10.9898 10.3152 10.9888 10.3127 10.9883C10.3077 10.988 10.3043 10.9879 10.3021 10.9879C10.3004 10.9884 10.2977 10.9893 10.294 10.9907C10.2908 10.9924 10.2834 10.9964 10.2703 11.0041C10.2421 11.0205 10.2043 11.0439 10.1434 11.0816C9.74963 11.3252 9.33981 11.4955 8.92464 11.6033C8.77063 11.8179 8.59743 12.0226 8.40516 12.2151C7.83865 12.7823 6.97336 13.2971 6.00954 13.528C5.03903 13.7604 3.9333 13.7117 2.93275 13.0926C2.88424 13.0626 2.85459 13.0443 2.83273 13.0315C2.81528 13.0357 2.7913 13.0418 2.75154 13.0522L2.73552 13.0563C2.46987 13.1253 2.24738 13.183 2.06669 13.2171C1.88458 13.2515 1.69066 13.2736 1.49764 13.2343C0.960824 13.1249 0.541767 12.705 0.432677 12.1683C0.393467 11.9753 0.415496 11.7815 0.449825 11.5992C0.483887 11.4183 0.541543 11.1956 0.610407 10.9296L0.614559 10.9136C0.624975 10.8733 0.631171 10.8492 0.635323 10.8317C0.622555 10.81 0.604331 10.7806 0.574274 10.7321C-0.044196 9.73569 -0.106481 8.6411 0.121239 7.67093C0.347324 6.70774 0.863838 5.84051 1.45036 5.25325C1.62708 5.0763 1.81413 4.91547 2.00964 4.77086ZM4.29841 2.39453C6.21833 0.472192 9.33088 0.472192 11.2508 2.39453C11.8288 2.97326 12.3558 3.85323 12.5841 4.82591C12.8108 5.79162 12.7383 6.82156 12.1647 7.74577C12.1593 7.75451 12.1538 7.76335 12.1482 7.77225C12.0936 7.86004 12.0347 7.95458 12.0005 8.04043C11.9399 8.19273 11.919 8.33057 11.9315 8.49399C11.9385 8.58581 11.9632 8.6805 11.9849 8.76366C11.9869 8.77144 11.9889 8.77912 11.9909 8.78669C12.0805 9.13281 12.1414 9.36921 12.1755 9.5501C12.2099 9.73321 12.2053 9.80565 12.1992 9.83579C12.1509 10.0734 11.9656 10.2586 11.7291 10.3067C11.6994 10.3128 11.6273 10.3175 11.4445 10.283C11.2639 10.2489 11.0278 10.1879 10.6821 10.0982C10.6746 10.0962 10.6669 10.0942 10.6591 10.0922C10.5761 10.0705 10.4815 10.0458 10.3899 10.0387C10.2267 10.026 10.0897 10.0468 9.93751 10.1071C9.85186 10.1411 9.75699 10.2 9.66878 10.2548C9.6598 10.2603 9.65089 10.2659 9.64207 10.2713C9.6247 10.2821 9.60731 10.2926 9.58987 10.303C10.1642 8.58807 9.76967 6.61948 8.40516 5.25325C6.99102 3.83733 4.93038 3.46422 3.17512 4.13324C3.41415 3.49941 3.78847 2.90511 4.29841 2.39453ZM2.71244 5.44048C4.25409 4.3979 6.3665 4.5603 7.73102 5.92654C9.08432 7.28154 9.2554 9.37358 8.24236 10.9143C8.09667 11.1358 7.9263 11.3463 7.73102 11.5418C7.28867 11.9847 6.57981 12.4117 5.78761 12.6014C5.00209 12.7896 4.16992 12.7377 3.43408 12.2824C3.42678 12.2779 3.41928 12.2733 3.41162 12.2685C3.34077 12.2244 3.25562 12.1715 3.17752 12.1405C3.04028 12.0861 2.91468 12.0671 2.76747 12.0785C2.684 12.0849 2.59849 12.1073 2.53164 12.1249C2.52497 12.1266 2.51849 12.1283 2.51221 12.1299C2.22635 12.2041 2.0352 12.2535 1.88992 12.2809C1.74242 12.3087 1.69609 12.3024 1.68788 12.3007C1.52623 12.2678 1.39942 12.1411 1.36636 11.9785C1.36462 11.9699 1.35831 11.9233 1.38614 11.7755C1.41355 11.63 1.46284 11.4385 1.53693 11.1523C1.53856 11.1461 1.54025 11.1396 1.54199 11.1329C1.5595 11.0659 1.58187 10.9803 1.58828 10.8966C1.59957 10.7493 1.58034 10.623 1.52572 10.4856C1.49459 10.4074 1.44165 10.3225 1.39767 10.252C1.39293 10.2444 1.38829 10.2369 1.3838 10.2297C0.925533 9.49137 0.866102 8.66703 1.0488 7.88866C1.23314 7.10332 1.65919 6.39243 2.1245 5.92654C2.30835 5.74245 2.5054 5.5805 2.71244 5.44048Z" fill="#3762E3"/>
<path d="M6.19294 8.73377C6.19294 9.08457 6.47732 9.36895 6.82812 9.36895C7.17893 9.36895 7.46331 9.08457 7.46331 8.73377C7.46331 8.38297 7.17893 8.09859 6.82812 8.09859C6.47732 8.09859 6.19294 8.38297 6.19294 8.73377Z" fill="#3762E3"/>
<path d="M4.28739 8.73377C4.28739 9.08457 4.57177 9.36895 4.92257 9.36895C5.27338 9.36895 5.55776 9.08457 5.55776 8.73377C5.55776 8.38297 5.27338 8.09859 4.92257 8.09859C4.57177 8.09859 4.28739 8.38297 4.28739 8.73377Z" fill="#3762E3"/>
<path d="M2.38184 8.73377C2.38184 9.08457 2.66622 9.36895 3.01702 9.36895C3.36783 9.36895 3.65221 9.08457 3.65221 8.73377C3.65221 8.38297 3.36783 8.09859 3.01702 8.09859C2.66622 8.09859 2.38184 8.38297 2.38184 8.73377Z" fill="#3762E3"/>
</svg>
