<svg width="12" height="11" viewBox="0 0 12 11" fill="none" xmlns="http://www.w3.org/2000/svg">
<path d="M5.03125 4.375C5.03125 4.24521 5.06974 4.11833 5.14185 4.01041C5.21396 3.90249 5.31645 3.81837 5.43636 3.7687C5.55628 3.71903 5.68823 3.70604 5.81553 3.73136C5.94283 3.75668 6.05976 3.81918 6.15154 3.91096C6.24332 4.00274 6.30582 4.11967 6.33114 4.24697C6.35646 4.37427 6.34347 4.50622 6.2938 4.62614C6.24413 4.74605 6.16001 4.84854 6.05209 4.92065C5.94417 4.99276 5.81729 5.03125 5.6875 5.03125C5.51345 5.03125 5.34653 4.96211 5.22346 4.83904C5.10039 4.71597 5.03125 4.54905 5.03125 4.375ZM3.28125 5.03125C3.41104 5.03125 3.53792 4.99276 3.64584 4.92065C3.75376 4.84854 3.83788 4.74605 3.88755 4.62614C3.93722 4.50622 3.95021 4.37427 3.92489 4.24697C3.89957 4.11967 3.83707 4.00274 3.74529 3.91096C3.65351 3.81918 3.53658 3.75668 3.40928 3.73136C3.28198 3.70604 3.15003 3.71903 3.03011 3.7687C2.9102 3.81837 2.80771 3.90249 2.7356 4.01041C2.66349 4.11833 2.625 4.24521 2.625 4.375C2.625 4.54905 2.69414 4.71597 2.81721 4.83904C2.94028 4.96211 3.1072 5.03125 3.28125 5.03125ZM8.09375 5.03125C8.22354 5.03125 8.35042 4.99276 8.45834 4.92065C8.56626 4.84854 8.65038 4.74605 8.70005 4.62614C8.74972 4.50622 8.76271 4.37427 8.73739 4.24697C8.71207 4.11967 8.64957 4.00274 8.55779 3.91096C8.46601 3.81918 8.34908 3.75668 8.22178 3.73136C8.09448 3.70604 7.96253 3.71903 7.84261 3.7687C7.7227 3.81837 7.62021 3.90249 7.5481 4.01041C7.47599 4.11833 7.4375 4.24521 7.4375 4.375C7.4375 4.54905 7.50664 4.71597 7.62971 4.83904C7.75278 4.96211 7.9197 5.03125 8.09375 5.03125ZM11.375 0.875V7.875C11.375 8.10706 11.2828 8.32962 11.1187 8.49372C10.9546 8.65781 10.7321 8.75 10.5 8.75H7.19523L6.44711 10.0592C6.37056 10.1931 6.25999 10.3044 6.1266 10.3818C5.9932 10.4592 5.84172 10.4999 5.6875 10.4999C5.53328 10.4999 5.3818 10.4592 5.2484 10.3818C5.11501 10.3044 5.00444 10.1931 4.92789 10.0592L4.17977 8.75H0.875C0.642936 8.75 0.420376 8.65781 0.256282 8.49372C0.0921872 8.32962 0 8.10706 0 7.875V0.875C0 0.642936 0.0921872 0.420376 0.256282 0.256282C0.420376 0.0921872 0.642936 0 0.875 0H10.5C10.7321 0 10.9546 0.0921872 11.1187 0.256282C11.2828 0.420376 11.375 0.642936 11.375 0.875ZM10.5 0.875H0.875V7.875H4.43352C4.51098 7.87431 4.58723 7.89419 4.65449 7.93263C4.72175 7.97106 4.7776 8.02666 4.81633 8.09375L5.69133 9.625L6.56633 8.09375C6.60506 8.02666 6.66091 7.97106 6.72816 7.93263C6.79542 7.89419 6.87168 7.87431 6.94914 7.875H10.5V0.875Z" fill="#111113"/>
</svg>
