<svg width="18" height="23" viewBox="0 0 18 23" fill="none" xmlns="http://www.w3.org/2000/svg">
<path d="M5.93339 19.75L6.2334 20.15C7.5834 21.95 10.2834 21.95 11.6334 20.15L11.9334 19.75M1.11622 14.2996L1.21957 14.5127C1.88334 15.8811 3.27057 16.75 4.79147 16.75H13.0123C14.3156 16.75 15.5286 16.0842 16.2283 14.9847C17.2161 13.4326 16.9545 11.3965 15.6064 10.1445L15.5625 10.1038C14.6473 9.25376 14.1966 8.01543 14.3516 6.77598L14.4162 6.25905C14.7818 3.33379 12.5009 0.75 9.55289 0.75H7.84998C4.90555 0.75 2.6274 3.33064 2.99262 6.25234L3.07197 6.88719C3.21811 8.05631 2.79106 9.2241 1.92517 10.0231C0.742451 11.1145 0.413858 12.8516 1.11622 14.2996Z" stroke="#111113" stroke-width="1.5" stroke-linecap="round"/>
</svg>
