<svg width="21" height="21" viewBox="0 0 21 21" fill="none" xmlns="http://www.w3.org/2000/svg">
<path d="M1.10019 5.3L19.1002 5.3M1.10019 14.9L19.1002 14.9M10.1002 0.5L10.1002 19.7M14.9002 0.5L14.9002 5.3M14.9002 14.9L14.9002 19.7M5.30019 0.499999L5.30019 5.3M5.30019 14.9L5.30019 19.7M4.10008 0.5L16.1002 0.500003C18.0884 0.500003 19.7002 2.11178 19.7002 4.1L19.7002 16.1C19.7002 18.0882 18.0884 19.7 16.1002 19.7L4.10008 19.7C2.11186 19.7 0.500084 18.0882 0.500084 16.1L0.500085 4.1C0.500085 2.11177 2.11186 0.5 4.10008 0.5Z" stroke="#737378" stroke-linecap="round" stroke-linejoin="round"/>
</svg>
